<svg xmlns="http://www.w3.org/2000/svg" viewBox="0 0 82 16" shape-rendering="crispEdges">
  <rect width="82" height="16" fill="#090d0c"/>
  <rect x="3" y="2" width="4" height="7" fill="#31423a"/>
  <g fill="#6c8177">
    <rect x="8" y="2" width="4" height="4"/>
    <rect x="8" y="7" width="4" height="4"/>
  </g>
  <g fill="#57e6a9">
    <rect x="13" y="2" width="4" height="3"/>
    <rect x="13" y="6" width="4" height="3"/>
    <rect x="13" y="10" width="4" height="3"/>
  </g>
  <g fill="#e6f1ea">
    <rect x="21" y="6" width="3" height="1"/>
    <rect x="20" y="7" width="1" height="1"/>
    <rect x="21" y="8" width="2" height="1"/>
    <rect x="23" y="9" width="1" height="1"/>
    <rect x="20" y="10" width="3" height="1"/>
    <rect x="26" y="6" width="3" height="1"/>
    <rect x="25" y="7" width="1" height="1"/>
    <rect x="25" y="8" width="1" height="1"/>
    <rect x="25" y="9" width="1" height="1"/>
    <rect x="26" y="10" width="3" height="1"/>
    <rect x="30" y="6" width="1" height="1"/>
    <rect x="32" y="6" width="2" height="1"/>
    <rect x="30" y="7" width="2" height="1"/>
    <rect x="30" y="8" width="1" height="1"/>
    <rect x="30" y="9" width="1" height="1"/>
    <rect x="30" y="10" width="1" height="1"/>
    <rect x="36" y="6" width="2" height="1"/>
    <rect x="38" y="7" width="1" height="1"/>
    <rect x="36" y="8" width="3" height="1"/>
    <rect x="35" y="9" width="1" height="1"/>
    <rect x="38" y="9" width="1" height="1"/>
    <rect x="36" y="10" width="3" height="1"/>
    <rect x="41" y="5" width="1" height="1"/>
    <rect x="40" y="6" width="3" height="1"/>
    <rect x="41" y="7" width="1" height="1"/>
    <rect x="41" y="8" width="1" height="1"/>
    <rect x="41" y="9" width="1" height="1"/>
    <rect x="41" y="10" width="2" height="1"/>
    <rect x="46" y="6" width="3" height="1"/>
    <rect x="45" y="7" width="1" height="1"/>
    <rect x="45" y="8" width="1" height="1"/>
    <rect x="45" y="9" width="1" height="1"/>
    <rect x="46" y="10" width="3" height="1"/>
    <rect x="50" y="4" width="1" height="1"/>
    <rect x="50" y="5" width="1" height="1"/>
    <rect x="50" y="6" width="3" height="1"/>
    <rect x="50" y="7" width="1" height="1"/>
    <rect x="53" y="7" width="1" height="1"/>
    <rect x="50" y="8" width="1" height="1"/>
    <rect x="53" y="8" width="1" height="1"/>
    <rect x="50" y="9" width="1" height="1"/>
    <rect x="53" y="9" width="1" height="1"/>
    <rect x="50" y="10" width="1" height="1"/>
    <rect x="53" y="10" width="1" height="1"/>
    <rect x="55" y="4" width="1" height="1"/>
    <rect x="55" y="5" width="1" height="1"/>
    <rect x="55" y="6" width="3" height="1"/>
    <rect x="55" y="7" width="1" height="1"/>
    <rect x="58" y="7" width="1" height="1"/>
    <rect x="55" y="8" width="1" height="1"/>
    <rect x="58" y="8" width="1" height="1"/>
    <rect x="55" y="9" width="1" height="1"/>
    <rect x="58" y="9" width="1" height="1"/>
    <rect x="55" y="10" width="3" height="1"/>
    <rect x="61" y="6" width="2" height="1"/>
    <rect x="60" y="7" width="1" height="1"/>
    <rect x="63" y="7" width="1" height="1"/>
    <rect x="60" y="8" width="1" height="1"/>
    <rect x="63" y="8" width="1" height="1"/>
    <rect x="60" y="9" width="1" height="1"/>
    <rect x="63" y="9" width="1" height="1"/>
    <rect x="61" y="10" width="2" height="1"/>
    <rect x="66" y="6" width="2" height="1"/>
    <rect x="68" y="7" width="1" height="1"/>
    <rect x="66" y="8" width="3" height="1"/>
    <rect x="65" y="9" width="1" height="1"/>
    <rect x="68" y="9" width="1" height="1"/>
    <rect x="66" y="10" width="3" height="1"/>
    <rect x="70" y="6" width="1" height="1"/>
    <rect x="72" y="6" width="2" height="1"/>
    <rect x="70" y="7" width="2" height="1"/>
    <rect x="70" y="8" width="1" height="1"/>
    <rect x="70" y="9" width="1" height="1"/>
    <rect x="70" y="10" width="1" height="1"/>
    <rect x="78" y="4" width="1" height="1"/>
    <rect x="78" y="5" width="1" height="1"/>
    <rect x="76" y="6" width="3" height="1"/>
    <rect x="75" y="7" width="1" height="1"/>
    <rect x="78" y="7" width="1" height="1"/>
    <rect x="75" y="8" width="1" height="1"/>
    <rect x="78" y="8" width="1" height="1"/>
    <rect x="75" y="9" width="1" height="1"/>
    <rect x="78" y="9" width="1" height="1"/>
    <rect x="76" y="10" width="3" height="1"/>
  </g>
</svg>
